<mxfile host="app.diagrams.net" modified="2023-12-15T10:07:48.092Z" agent="Mozilla/5.0 (Windows NT 10.0; Win64; x64) AppleWebKit/537.36 (KHTML, like Gecko) Chrome/120.0.0.0 Safari/537.36 Edg/120.0.0.0" etag="tnEY1T73WFVc8IsCCbZi" version="22.1.9" type="github">
  <diagram name="Page-1" id="xyPCILPtSHn7KrTgotnO">
    <mxGraphModel dx="771" dy="1239" grid="1" gridSize="10" guides="1" tooltips="1" connect="1" arrows="1" fold="1" page="1" pageScale="1" pageWidth="1169" pageHeight="827" math="0" shadow="0">
      <root>
        <mxCell id="0" />
        <mxCell id="1" parent="0" />
        <mxCell id="0KMUUuMNLIumDOUT72Gz-1" value="" style="rounded=0;whiteSpace=wrap;html=1;" vertex="1" parent="1">
          <mxGeometry x="110" y="-790" width="970" height="720" as="geometry" />
        </mxCell>
        <mxCell id="0KMUUuMNLIumDOUT72Gz-2" value="&lt;p style=&quot;line-height: 100%;&quot;&gt;&lt;br&gt;&lt;/p&gt;" style="image;aspect=fixed;perimeter=ellipsePerimeter;html=1;align=center;shadow=0;dashed=0;spacingTop=3;image=img/lib/active_directory/internet_cloud.svg;verticalAlign=middle;" vertex="1" parent="1">
          <mxGeometry x="521" y="-750" width="126.98" height="80" as="geometry" />
        </mxCell>
      </root>
    </mxGraphModel>
  </diagram>
</mxfile>
